 http://www.imdb.com/title/tt1375670/

Total
Full name: D: \ HD \ Grown.Ups.2010.BluRay.1080p.DTS.x264-CHD.mkv
Format: Matroska
File size: 9.98 GiB
Duration: 1 hr 42 m
Total flow: 14.0 Mbps
Encoded date: UTC 2010-10-18 09:58:30
Program coding: mkvmerge v3.4.0 ('Rapunzel') build on May 15 2010 9:38:20
Encoding library: libebml v0.8.0 + libmatroska v0.9.0

Video
Identifier: 1
Format: AVC
Format / Info: Advanced Video Codec
Profile format: High@L4.1
Options CABAC format: Yes
Options ReFrames format: 4 frames
Blending mode: Container profile = Unknown@4.1
Codec ID: V_MPEG4/ISO/AVC
Duration: 1 hr 42 m
Bitrate: 12,0 Mbps
Width: 1920 pixels.
Height: 1040 pixels.
Aspect ratio: 16:9
Frame rate: 23.976 fps
ColorSpace: YUV
ChromaSubsampling: 4:2:0
BitDepth / String: 8 bits
Scan type: Progressive
Bits / (Pixel * Frame): 0.251
Stream size: 8.39 GiB (84%)
Title: Grown.Ups.2010
Encoding library: x264 core 102 r1666 d058f37
Program settings: cabac = 1 / ref = 4 / deblock = 1: -3: -3 / analyse = 0x3: 0x113 / me = umh / subme = 9 / psy = 1 / psy_rd = 1.10:0.15 / mixed_ref = 1 / me_range = 32 / chroma_me = 1 / trellis = 2 / 8x8dct = 1 / cqm = 2 / deadzone = 21,11 / fast_pskip = 0 / chroma_qp_offset =- 2 / threads = 12 / sliced_threads = 0 / nr = 0 / decimate = 1 / interlaced = 0 / constrained_intra = 0 / bframes = 6 / b_pyramid = 2 / b_adapt = 2 / b_bias = 0 / direct = 3 / weightb = 1 / open_gop = 0 / weightp = 2 / keyint = 250 / keyint_min = 25 / scenecut = 40 / intra_refresh = 0 / rc_lookahead = 50 / rc = 2pass / mbtree = 1 / bitrate = 12000 / ratetol = 2.0 / qcomp = 0.70 / qpmin = 10 / qpmax = 51 / qpstep = 4 / cplxblur = 20.0 / qblur = 0.5 / vbv_maxrate = 50000 / vbv_bufsize = 50000 / ip_ratio = 1.40 / aq = 1:0.80 / nal_hrd = none
Language: English

Audio # 1
Identifier: 2
Format: DTS
Format / Info: Digital Theater Systems
Codec ID: A_DTS
Duration: 1 hr 42 m
Bit rate mode: Constant
Bitrate: 1510 kbit / s
Channel (s): 6 channel (s)
The location of channels: Front: LCR, Side: LR, LFE
Frequency: 48.0 kHz
BitDepth / String: 24 bits
Stream size: 1.08 GiB (11%)
Title: DTS-HD MA CORE 1536K
Language: English

Audio # 2
Identifier: 3
Format: AC-3
Format / Info: Audio Coding 3
Format_Settings_ModeExtension: CM (complete main)
Codec ID: A_AC3
Duration: 1 hr 42 m
Bit rate mode: Constant
Bitrate: 448 kbps
Channel (s): 6 channel (s)
The location of channels: Front: LCR, Side: LR, LFE
Frequency: 48.0 kHz
BitDepth / String: 16 bits
Stream size: 328 MiB (3%)
Title: Eng
Language: Russian

Text # 1
Text
Identifier: 4
Format: UTF-8
Codec ID: S_TEXT/UTF8
Codec ID / Info: UTF-8 Plain Text
Title: inscriptions
Language: Russian

Text # 2
Identifier: 4
Format: UTF-8
Codec ID: S_TEXT/UTF8
Codec ID / Info: UTF-8 Plain Text
Title: Eng
Language: English